solid OpenSCAD_Model
  facet normal -0 0 1
    outer loop
      vertex -20.5 22.5 23
      vertex 20.5 -22.5 23
      vertex 20.5 22.5 23
    endloop
  endfacet
  facet normal 0 0 1
    outer loop
      vertex 20.5 -22.5 23
      vertex -20.5 22.5 23
      vertex -20.5 -22.5 23
    endloop
  endfacet
  facet normal 0 0 -1
    outer loop
      vertex -20.5 -22.5 -23
      vertex 20.5 22.5 -23
      vertex 20.5 -22.5 -23
    endloop
  endfacet
  facet normal -0 0 -1
    outer loop
      vertex 20.5 22.5 -23
      vertex -20.5 -22.5 -23
      vertex -20.5 22.5 -23
    endloop
  endfacet
  facet normal 0 -1 0
    outer loop
      vertex -20.5 -22.5 -23
      vertex 20.5 -22.5 23
      vertex -20.5 -22.5 23
    endloop
  endfacet
  facet normal 0 -1 -0
    outer loop
      vertex 20.5 -22.5 23
      vertex -20.5 -22.5 -23
      vertex 20.5 -22.5 -23
    endloop
  endfacet
  facet normal 1 -0 0
    outer loop
      vertex 20.5 -22.5 23
      vertex 20.5 22.5 -23
      vertex 20.5 22.5 23
    endloop
  endfacet
  facet normal 1 0 0
    outer loop
      vertex 20.5 22.5 -23
      vertex 20.5 -22.5 23
      vertex 20.5 -22.5 -23
    endloop
  endfacet
  facet normal 0 1 -0
    outer loop
      vertex 20.5 22.5 -23
      vertex -20.5 22.5 23
      vertex 20.5 22.5 23
    endloop
  endfacet
  facet normal 0 1 0
    outer loop
      vertex -20.5 22.5 23
      vertex 20.5 22.5 -23
      vertex -20.5 22.5 -23
    endloop
  endfacet
  facet normal -1 0 0
    outer loop
      vertex -20.5 -22.5 -23
      vertex -20.5 22.5 23
      vertex -20.5 22.5 -23
    endloop
  endfacet
  facet normal -1 -0 0
    outer loop
      vertex -20.5 22.5 23
      vertex -20.5 -22.5 -23
      vertex -20.5 -22.5 23
    endloop
  endfacet
endsolid OpenSCAD_Model
